<svg xmlns="http://www.w3.org/2000/svg" width="1200" height="630" viewBox="0 0 1200 630" role="img" aria-label="Joshua Knott portfolio preview">
  <rect width="1200" height="630" fill="#ffffff"/>
  <path d="M0 0h1200v630H0z" fill="url(#bg)"/>
  <defs>
    <linearGradient id="bg" x1="0" x2="1" y1="0" y2="1">
      <stop offset="0" stop-color="#f8fbff"/>
      <stop offset="0.55" stop-color="#ffffff"/>
      <stop offset="1" stop-color="#f8f1ff"/>
    </linearGradient>
    <linearGradient id="text" x1="140" x2="820" y1="340" y2="340">
      <stop stop-color="#2563ff"/>
      <stop offset="0.55" stop-color="#8b43f7"/>
      <stop offset="1" stop-color="#ef6a78"/>
    </linearGradient>
  </defs>
  <text x="140" y="148" fill="#2563ff" font-family="Arial, sans-serif" font-size="58" font-weight="800">JK</text>
  <text x="140" y="286" fill="#0d1328" font-family="Arial, sans-serif" font-size="88" font-weight="800">Joshua Knott</text>
  <text x="140" y="366" fill="url(#text)" font-family="Arial, sans-serif" font-size="46" font-weight="800">Building AI-powered solutions</text>
  <text x="140" y="428" fill="#56617a" font-family="Arial, sans-serif" font-size="28">AI products, digital systems, and community platforms.</text>
  <rect x="760" y="166" width="270" height="190" rx="34" fill="#ffffff" stroke="#d9e0f2" stroke-width="2"/>
  <path d="M810 226h170M810 276h140M810 326h110" stroke="#2e63ff" stroke-width="14" stroke-linecap="round" opacity="0.72"/>
  <circle cx="948" cy="424" r="82" fill="#edf3ff"/>
  <path d="M882 424h132M948 358v132M904 384c28 22 60 22 88 0M904 464c28-22 60-22 88 0" stroke="#6c7cff" stroke-width="5" fill="none" opacity="0.75"/>
</svg>
